<mxfile><diagram id="dY0BCQ1CerN_3FXadYJK" name="Page-1"><mxGraphModel dx="1242" dy="587" grid="1" gridSize="10" guides="1" tooltips="1" connect="1" arrows="1" fold="1" page="1" pageScale="1" pageWidth="850" pageHeight="1100" math="0" shadow="0"><root><mxCell id="0"/><mxCell id="1" parent="0"/><mxCell id="2" value="user" style="whiteSpace=wrap;html=1;align=center;" parent="1" vertex="1"><mxGeometry x="315" y="130" width="100" height="40" as="geometry"/></mxCell><mxCell id="4" value="user Id" style="ellipse;whiteSpace=wrap;html=1;align=center;fontStyle=4;" parent="1" vertex="1"><mxGeometry x="130" y="40" width="100" height="40" as="geometry"/></mxCell><mxCell id="5" value="user name" style="ellipse;whiteSpace=wrap;html=1;align=center;" parent="1" vertex="1"><mxGeometry x="250" y="20" width="100" height="40" as="geometry"/></mxCell><mxCell id="6" value="password" style="ellipse;whiteSpace=wrap;html=1;align=center;" parent="1" vertex="1"><mxGeometry x="370" y="30" width="100" height="40" as="geometry"/></mxCell><mxCell id="7" value="full name" style="ellipse;whiteSpace=wrap;html=1;align=center;" parent="1" vertex="1"><mxGeometry x="470" y="70" width="100" height="40" as="geometry"/></mxCell><mxCell id="8" value="game" style="whiteSpace=wrap;html=1;align=center;" parent="1" vertex="1"><mxGeometry x="500" y="400" width="100" height="40" as="geometry"/></mxCell><mxCell id="9" value="game name" style="ellipse;whiteSpace=wrap;html=1;align=center;" parent="1" vertex="1"><mxGeometry x="650" y="430.92" width="100" height="40" as="geometry"/></mxCell><mxCell id="10" value="game id" style="ellipse;whiteSpace=wrap;html=1;align=center;fontStyle=4;" parent="1" vertex="1"><mxGeometry x="650" y="380" width="100" height="40" as="geometry"/></mxCell><mxCell id="11" value="score" style="whiteSpace=wrap;html=1;align=center;" parent="1" vertex="1"><mxGeometry x="160" y="400" width="100" height="40" as="geometry"/></mxCell><mxCell id="12" value="score id" style="ellipse;whiteSpace=wrap;html=1;align=center;fontStyle=4;" parent="1" vertex="1"><mxGeometry x="10.000000000000007" y="351" width="100" height="40" as="geometry"/></mxCell><mxCell id="13" value="score name" style="ellipse;whiteSpace=wrap;html=1;align=center;" parent="1" vertex="1"><mxGeometry x="20" y="410" width="100" height="40" as="geometry"/></mxCell><mxCell id="14" value="have" style="shape=rhombus;perimeter=rhombusPerimeter;whiteSpace=wrap;html=1;align=center;" parent="1" vertex="1"><mxGeometry x="410" y="250" width="120" height="60" as="geometry"/></mxCell><mxCell id="24" value="" style="endArrow=none;html=1;rounded=0;exitX=1;exitY=0.25;exitDx=0;exitDy=0;entryX=0;entryY=1;entryDx=0;entryDy=0;" parent="1" source="2" target="7" edge="1"><mxGeometry relative="1" as="geometry"><mxPoint x="410" y="350" as="sourcePoint"/><mxPoint x="570" y="350" as="targetPoint"/></mxGeometry></mxCell><mxCell id="25" value="" style="endArrow=none;html=1;rounded=0;exitX=0.75;exitY=0;exitDx=0;exitDy=0;entryX=0.5;entryY=1;entryDx=0;entryDy=0;" parent="1" source="2" target="6" edge="1"><mxGeometry relative="1" as="geometry"><mxPoint x="467.68" y="270" as="sourcePoint"/><mxPoint x="532.3246609406726" y="295.85786437626894" as="targetPoint"/></mxGeometry></mxCell><mxCell id="26" value="" style="endArrow=none;html=1;rounded=0;exitX=0.5;exitY=1;exitDx=0;exitDy=0;entryX=0.5;entryY=0;entryDx=0;entryDy=0;" parent="1" source="5" target="2" edge="1"><mxGeometry relative="1" as="geometry"><mxPoint x="410" y="220" as="sourcePoint"/><mxPoint x="474.64466094067257" y="245.85786437626894" as="targetPoint"/></mxGeometry></mxCell><mxCell id="27" value="" style="endArrow=none;html=1;rounded=0;exitX=1;exitY=1;exitDx=0;exitDy=0;entryX=0.25;entryY=0;entryDx=0;entryDy=0;" parent="1" source="4" target="2" edge="1"><mxGeometry relative="1" as="geometry"><mxPoint x="335.36" y="230" as="sourcePoint"/><mxPoint x="400.0046609406726" y="255.85786437626894" as="targetPoint"/></mxGeometry></mxCell><mxCell id="28" value="" style="endArrow=none;html=1;rounded=0;exitX=1;exitY=0.25;exitDx=0;exitDy=0;entryX=0;entryY=0.5;entryDx=0;entryDy=0;" parent="1" source="8" target="10" edge="1"><mxGeometry relative="1" as="geometry"><mxPoint x="510" y="340" as="sourcePoint"/><mxPoint x="574.6446609406726" y="365.85786437626894" as="targetPoint"/></mxGeometry></mxCell><mxCell id="29" value="" style="endArrow=none;html=1;rounded=0;exitX=1;exitY=1;exitDx=0;exitDy=0;entryX=0;entryY=0;entryDx=0;entryDy=0;" parent="1" source="8" target="9" edge="1"><mxGeometry relative="1" as="geometry"><mxPoint x="500" y="500" as="sourcePoint"/><mxPoint x="564.6446609406726" y="525.8578643762689" as="targetPoint"/></mxGeometry></mxCell><mxCell id="30" value="" style="endArrow=none;html=1;rounded=0;exitX=0;exitY=0.5;exitDx=0;exitDy=0;entryX=1;entryY=0.5;entryDx=0;entryDy=0;" parent="1" source="11" target="13" edge="1"><mxGeometry relative="1" as="geometry"><mxPoint x="77.68" y="340" as="sourcePoint"/><mxPoint x="142.32466094067257" y="365.85786437626894" as="targetPoint"/></mxGeometry></mxCell><mxCell id="31" value="" style="endArrow=none;html=1;rounded=0;exitX=1;exitY=1;exitDx=0;exitDy=0;entryX=0;entryY=0;entryDx=0;entryDy=0;" parent="1" source="12" target="11" edge="1"><mxGeometry relative="1" as="geometry"><mxPoint x="-4.639999999999986" y="294.14" as="sourcePoint"/><mxPoint x="60.00466094067258" y="319.9978643762689" as="targetPoint"/></mxGeometry></mxCell><mxCell id="32" value="have" style="shape=rhombus;perimeter=rhombusPerimeter;whiteSpace=wrap;html=1;align=center;" parent="1" vertex="1"><mxGeometry x="305" y="450" width="120" height="60" as="geometry"/></mxCell><mxCell id="33" value="have" style="shape=rhombus;perimeter=rhombusPerimeter;whiteSpace=wrap;html=1;align=center;" parent="1" vertex="1"><mxGeometry x="200" y="250" width="120" height="60" as="geometry"/></mxCell><mxCell id="34" value="" style="endArrow=none;html=1;rounded=0;entryX=0.5;entryY=1;entryDx=0;entryDy=0;exitX=0.5;exitY=0;exitDx=0;exitDy=0;" parent="1" target="33" edge="1"><mxGeometry relative="1" as="geometry"><mxPoint x="210" y="400" as="sourcePoint"/><mxPoint x="215" y="340" as="targetPoint"/></mxGeometry></mxCell><mxCell id="41" value="" style="endArrow=none;html=1;rounded=0;dashed=1;dashPattern=1 2;exitX=0.5;exitY=0;exitDx=0;exitDy=0;entryX=0.75;entryY=1;entryDx=0;entryDy=0;" parent="1" source="14" target="2" edge="1"><mxGeometry relative="1" as="geometry"><mxPoint x="330" y="360" as="sourcePoint"/><mxPoint x="490" y="360" as="targetPoint"/></mxGeometry></mxCell><mxCell id="43" value="" style="endArrow=none;html=1;rounded=0;dashed=1;dashPattern=1 2;exitX=0.5;exitY=1;exitDx=0;exitDy=0;entryX=0;entryY=0;entryDx=0;entryDy=0;" parent="1" source="14" target="8" edge="1"><mxGeometry relative="1" as="geometry"><mxPoint x="330" y="360" as="sourcePoint"/><mxPoint x="490" y="360" as="targetPoint"/></mxGeometry></mxCell><mxCell id="44" value="N" style="resizable=0;html=1;align=right;verticalAlign=bottom;" parent="43" connectable="0" vertex="1"><mxGeometry x="1" relative="1" as="geometry"><mxPoint x="12" as="offset"/></mxGeometry></mxCell><mxCell id="46" value="" style="endArrow=none;html=1;rounded=0;dashed=1;dashPattern=1 2;entryX=0;entryY=0.5;entryDx=0;entryDy=0;exitX=0.5;exitY=0;exitDx=0;exitDy=0;" parent="1" source="33" target="2" edge="1"><mxGeometry relative="1" as="geometry"><mxPoint x="190" y="380" as="sourcePoint"/><mxPoint x="350" y="380" as="targetPoint"/></mxGeometry></mxCell><mxCell id="48" value="" style="endArrow=none;html=1;rounded=0;entryX=0.5;entryY=1;entryDx=0;entryDy=0;exitX=0;exitY=0;exitDx=0;exitDy=0;" parent="1" source="32" target="11" edge="1"><mxGeometry relative="1" as="geometry"><mxPoint x="190" y="510" as="sourcePoint"/><mxPoint x="350" y="510" as="targetPoint"/></mxGeometry></mxCell><mxCell id="49" value="1" style="resizable=0;html=1;align=right;verticalAlign=bottom;" parent="48" connectable="0" vertex="1"><mxGeometry x="1" relative="1" as="geometry"><mxPoint x="-5" y="21" as="offset"/></mxGeometry></mxCell><mxCell id="50" value="" style="endArrow=none;html=1;rounded=0;dashed=1;dashPattern=1 2;exitX=1;exitY=0;exitDx=0;exitDy=0;entryX=0;entryY=1;entryDx=0;entryDy=0;" parent="1" source="32" target="8" edge="1"><mxGeometry relative="1" as="geometry"><mxPoint x="280" y="550" as="sourcePoint"/><mxPoint x="440" y="550" as="targetPoint"/></mxGeometry></mxCell><mxCell id="51" value="N" style="resizable=0;html=1;align=right;verticalAlign=bottom;" parent="50" connectable="0" vertex="1"><mxGeometry x="1" relative="1" as="geometry"><mxPoint x="-5" y="2" as="offset"/></mxGeometry></mxCell><mxCell id="52" value="N" style="resizable=0;html=1;align=right;verticalAlign=bottom;" parent="1" connectable="0" vertex="1"><mxGeometry x="390.0000000000001" y="189.9955172413794" as="geometry"/></mxCell><mxCell id="53" value="N" style="resizable=0;html=1;align=right;verticalAlign=bottom;" parent="1" connectable="0" vertex="1"><mxGeometry x="529.997904465791" y="120.00161786316363" as="geometry"><mxPoint x="-226" y="48" as="offset"/></mxGeometry></mxCell><mxCell id="54" value="1" style="resizable=0;html=1;align=right;verticalAlign=bottom;" parent="1" connectable="0" vertex="1"><mxGeometry x="214.92895032996557" y="470.9171087182932" as="geometry"><mxPoint x="-14" y="-77" as="offset"/></mxGeometry></mxCell></root></mxGraphModel></diagram></mxfile>